<svg width="22" height="22" viewBox="0 0 22 22" fill="none" xmlns="http://www.w3.org/2000/svg">
<path fill-rule="evenodd" clip-rule="evenodd" d="M3.49992 1.91634C2.62547 1.91634 1.91659 2.62522 1.91659 3.49967V18.4997C1.91659 19.3741 2.62547 20.083 3.49992 20.083H18.4999C19.3744 20.083 20.0833 19.3741 20.0833 18.4997V3.49967C20.0833 2.62522 19.3744 1.91634 18.4999 1.91634H3.49992ZM0.083252 3.49967C0.083252 1.6127 1.61295 0.0830078 3.49992 0.0830078H18.4999C20.3869 0.0830078 21.9166 1.6127 21.9166 3.49967V18.4997C21.9166 20.3866 20.3869 21.9163 18.4999 21.9163H3.49992C1.61295 21.9163 0.083252 20.3866 0.083252 18.4997V3.49967Z" fill="#1D1D1F"/>
<path fill-rule="evenodd" clip-rule="evenodd" d="M5.99992 8.83301C6.50618 8.83301 6.91659 9.24341 6.91659 9.74967V15.9997C6.91659 16.5059 6.50618 16.9163 5.99992 16.9163C5.49366 16.9163 5.08325 16.5059 5.08325 15.9997V9.74967C5.08325 9.24341 5.49366 8.83301 5.99992 8.83301Z" fill="#1D1D1F"/>
<path fill-rule="evenodd" clip-rule="evenodd" d="M5.99992 5.08301C6.50618 5.08301 6.91659 5.49341 6.91659 5.99967V6.01217C6.91659 6.51844 6.50618 6.92884 5.99992 6.92884C5.49366 6.92884 5.08325 6.51844 5.08325 6.01217V5.99967C5.08325 5.49341 5.49366 5.08301 5.99992 5.08301Z" fill="#1D1D1F"/>
<path fill-rule="evenodd" clip-rule="evenodd" d="M10.9999 8.83301C11.5062 8.83301 11.9166 9.24341 11.9166 9.74967V15.9997C11.9166 16.5059 11.5062 16.9163 10.9999 16.9163C10.4937 16.9163 10.0833 16.5059 10.0833 15.9997V9.74967C10.0833 9.24341 10.4937 8.83301 10.9999 8.83301Z" fill="#1D1D1F"/>
<path fill-rule="evenodd" clip-rule="evenodd" d="M11.084 9.83373C11.7247 9.19298 12.5938 8.83301 13.4999 8.83301C14.4061 8.83301 15.2751 9.19298 15.9159 9.83373C16.5566 10.4745 16.9166 11.3435 16.9166 12.2497V15.9997C16.9166 16.5059 16.5062 16.9163 15.9999 16.9163C15.4937 16.9163 15.0833 16.5059 15.0833 15.9997V12.2497C15.0833 11.8297 14.9164 11.427 14.6195 11.1301C14.3226 10.8332 13.9198 10.6663 13.4999 10.6663C13.08 10.6663 12.6773 10.8332 12.3803 11.1301C12.0834 11.427 11.9166 11.8297 11.9166 12.2497C11.9166 12.7559 11.5062 13.1663 10.9999 13.1663C10.4937 13.1663 10.0833 12.7559 10.0833 12.2497C10.0833 11.3435 10.4432 10.4745 11.084 9.83373Z" fill="#1D1D1F"/>
</svg>
