<svg width="30" height="30" viewBox="0 0 30 30" fill="none" xmlns="http://www.w3.org/2000/svg">
<path fill-rule="evenodd" clip-rule="evenodd" d="M9.99992 5.91634C7.74476 5.91634 5.91659 7.74451 5.91659 9.99967V19.9997C5.91659 22.2548 7.74476 24.083 9.99992 24.083H19.9999C22.2551 24.083 24.0833 22.2548 24.0833 19.9997V9.99967C24.0833 7.74451 22.2551 5.91634 19.9999 5.91634H9.99992ZM4.08325 9.99967C4.08325 6.73199 6.73223 4.08301 9.99992 4.08301H19.9999C23.2676 4.08301 25.9166 6.73199 25.9166 9.99967V19.9997C25.9166 23.2674 23.2676 25.9163 19.9999 25.9163H9.99992C6.73223 25.9163 4.08325 23.2674 4.08325 19.9997V9.99967Z" fill="#1D1D1F"/>
<path fill-rule="evenodd" clip-rule="evenodd" d="M14.9999 12.1663C13.4351 12.1663 12.1666 13.4349 12.1666 14.9997C12.1666 16.5645 13.4351 17.833 14.9999 17.833C16.5647 17.833 17.8333 16.5645 17.8333 14.9997C17.8333 13.4349 16.5647 12.1663 14.9999 12.1663ZM10.3333 14.9997C10.3333 12.4223 12.4226 10.333 14.9999 10.333C17.5772 10.333 19.6666 12.4223 19.6666 14.9997C19.6666 17.577 17.5772 19.6663 14.9999 19.6663C12.4226 19.6663 10.3333 17.577 10.3333 14.9997Z" fill="#1D1D1F"/>
<path fill-rule="evenodd" clip-rule="evenodd" d="M20.6249 8.45801C21.1312 8.45801 21.5416 8.86841 21.5416 9.37467V9.37567C21.5416 9.88194 21.1312 10.2923 20.6249 10.2923C20.1187 10.2923 19.7083 9.88194 19.7083 9.37567V9.37467C19.7083 8.86841 20.1187 8.45801 20.6249 8.45801Z" fill="#1D1D1F"/>
</svg>
