<svg width="17" height="26" viewBox="0 0 17 26" fill="none" xmlns="http://www.w3.org/2000/svg">
<path fill-rule="evenodd" clip-rule="evenodd" d="M6.68232 2.93208C8.02633 1.58807 9.8492 0.833008 11.7499 0.833008H15.4999C16.0062 0.833008 16.4166 1.24341 16.4166 1.74967V6.74967C16.4166 7.25594 16.0062 7.66634 15.4999 7.66634H11.7499C11.6615 7.66634 11.5767 7.70146 11.5142 7.76397C11.4517 7.82649 11.4166 7.91127 11.4166 7.99967V9.58301H15.4999C15.7822 9.58301 16.0487 9.71306 16.2224 9.93555C16.3962 10.158 16.4577 10.4482 16.3892 10.722L15.1392 15.722C15.0372 16.1301 14.6705 16.4163 14.2499 16.4163H11.4166V24.2497C11.4166 24.7559 11.0062 25.1663 10.4999 25.1663H5.49992C4.99366 25.1663 4.58325 24.7559 4.58325 24.2497V16.4163H1.74992C1.24366 16.4163 0.833252 16.0059 0.833252 15.4997V10.4997C0.833252 9.99341 1.24366 9.58301 1.74992 9.58301H4.58325V7.99967C4.58325 6.09896 5.33831 4.27609 6.68232 2.93208ZM11.7499 2.66634C10.3354 2.66634 8.97888 3.22824 7.97868 4.22844C6.97849 5.22863 6.41659 6.58519 6.41659 7.99967V10.4997C6.41659 11.0059 6.00618 11.4163 5.49992 11.4163H2.66659V14.583H5.49992C6.00618 14.583 6.41659 14.9934 6.41659 15.4997V23.333H9.58325V15.4997C9.58325 14.9934 9.99366 14.583 10.4999 14.583H13.5342L14.3259 11.4163H10.4999C9.99366 11.4163 9.58325 11.0059 9.58325 10.4997V7.99967C9.58325 7.42504 9.81153 6.87394 10.2179 6.46761C10.6242 6.06128 11.1753 5.83301 11.7499 5.83301H14.5833V2.66634H11.7499Z" fill="#1D1D1F"/>
</svg>
