<svg width="22" height="22" viewBox="0 0 22 22" fill="none" xmlns="http://www.w3.org/2000/svg">
<path fill-rule="evenodd" clip-rule="evenodd" d="M3.49992 1.91634C2.62547 1.91634 1.91659 2.62522 1.91659 3.49967V18.4997C1.91659 19.3741 2.62547 20.083 3.49992 20.083H18.4999C19.3744 20.083 20.0833 19.3741 20.0833 18.4997V3.49967C20.0833 2.62522 19.3744 1.91634 18.4999 1.91634H3.49992ZM0.083252 3.49967C0.083252 1.6127 1.61295 0.0830078 3.49992 0.0830078H18.4999C20.3869 0.0830078 21.9166 1.6127 21.9166 3.49967V18.4997C21.9166 20.3866 20.3869 21.9163 18.4999 21.9163H3.49992C1.61295 21.9163 0.083252 20.3866 0.083252 18.4997V3.49967Z" fill="#1D1D1F"/>
</svg>
<svg width="2" height="9" viewBox="0 0 2 9" fill="none" xmlns="http://www.w3.org/2000/svg">
<path fill-rule="evenodd" clip-rule="evenodd" d="M0.999919 0.833008C1.50618 0.833008 1.91659 1.24341 1.91659 1.74967V7.99968C1.91659 8.50594 1.50618 8.91634 0.999919 8.91634C0.493658 8.91634 0.083252 8.50594 0.083252 7.99968V1.74967C0.083252 1.24341 0.493658 0.833008 0.999919 0.833008Z" fill="#1D1D1F"/>
</svg>
<svg width="2" height="2" viewBox="0 0 2 2" fill="none" xmlns="http://www.w3.org/2000/svg">
<path fill-rule="evenodd" clip-rule="evenodd" d="M0.999919 0.0830078C1.50618 0.0830078 1.91659 0.493413 1.91659 0.999674V1.01217C1.91659 1.51844 1.50618 1.92884 0.999919 1.92884C0.493658 1.92884 0.083252 1.51844 0.083252 1.01217V0.999674C0.083252 0.493413 0.493658 0.0830078 0.999919 0.0830078Z" fill="#1D1D1F"/>
</svg>
<svg width="2" height="9" viewBox="0 0 2 9" fill="none" xmlns="http://www.w3.org/2000/svg">
<path fill-rule="evenodd" clip-rule="evenodd" d="M0.999919 0.833008C1.50618 0.833008 1.91659 1.24341 1.91659 1.74967V7.99968C1.91659 8.50594 1.50618 8.91634 0.999919 8.91634C0.493658 8.91634 0.083252 8.50594 0.083252 7.99968V1.74967C0.083252 1.24341 0.493658 0.833008 0.999919 0.833008Z" fill="#1D1D1F"/>
</svg>
<svg width="7" height="9" viewBox="0 0 7 9" fill="none" xmlns="http://www.w3.org/2000/svg">
<path fill-rule="evenodd" clip-rule="evenodd" d="M1.08397 1.83373C1.72472 1.19298 2.59376 0.833008 3.49992 0.833008C4.40608 0.833008 5.27512 1.19298 5.91587 1.83373C6.55661 2.47448 6.91658 3.34352 6.91658 4.24968V7.99968C6.91658 8.50594 6.50618 8.91634 5.99992 8.91634C5.49366 8.91634 5.08325 8.50594 5.08325 7.99968V4.24968C5.08325 3.82975 4.91644 3.42702 4.6195 3.13009C4.32257 2.83316 3.91984 2.66634 3.49992 2.66634C3.07999 2.66634 2.67727 2.83316 2.38033 3.13009C2.0834 3.42702 1.91659 3.82975 1.91659 4.24968C1.91659 4.75594 1.50618 5.16634 0.999919 5.16634C0.493658 5.16634 0.083252 4.75594 0.083252 4.24968C0.083252 3.34352 0.443222 2.47448 1.08397 1.83373Z" fill="#1D1D1F"/>
</svg>
