<svg width="26" height="22" viewBox="0 0 26 22" fill="none" xmlns="http://www.w3.org/2000/svg">
<path fill-rule="evenodd" clip-rule="evenodd" d="M24.856 0.312013C25.1131 0.53858 25.2223 0.889596 25.1392 1.22202L20.1392 21.222C20.0591 21.5424 19.8129 21.7949 19.4946 21.8831C19.1763 21.9713 18.8353 21.8814 18.6017 21.6479L13.0991 16.1452L9.98326 20.2997C9.77869 20.5725 9.43964 20.7091 9.10309 20.6545C8.76654 20.5999 8.48811 20.363 8.3803 20.0396L6.00037 12.8998L1.33998 10.5696C1.01568 10.4074 0.817433 10.0694 0.834243 9.70719C0.851052 9.34501 1.07976 9.02677 1.41768 8.89535L23.9177 0.145353C24.237 0.0211608 24.599 0.0854468 24.856 0.312013ZM13.6593 14.1127C13.6525 14.1057 13.6456 14.0988 13.6386 14.092L13.0463 13.4997L17.3981 9.14787C17.7561 8.78989 17.7561 8.20949 17.3981 7.85151C17.0401 7.49353 16.4597 7.49353 16.1017 7.85151L11.1017 12.8515C10.7438 13.2095 10.7438 13.7899 11.1017 14.1479L11.7896 14.8357L9.5663 17.8001L7.61955 11.9598C7.54267 11.7292 7.37732 11.5385 7.15987 11.4298L4.00938 9.85456L22.9309 2.49618L18.7533 19.2067L13.6593 14.1127Z" fill="#1D1D1F"/>
</svg>
