<svg width="28" height="23" viewBox="0 0 28 23" fill="none" xmlns="http://www.w3.org/2000/svg">
<path fill-rule="evenodd" clip-rule="evenodd" d="M23.0179 2.21975C21.2937 0.666899 18.9708 0.714824 16.9536 1.4702C14.6179 2.34478 13.0518 4.50376 13.0833 7.00588V7.32219C9.70362 7.14826 6.7299 5.48827 4.74536 2.71629C4.56295 2.46151 4.26303 2.31755 3.95015 2.33459C3.63726 2.35164 3.35476 2.52733 3.20111 2.80042L4.00001 3.2499C3.20111 2.80042 3.20086 2.80086 3.2006 2.80134L3.19996 2.80248L3.19833 2.8054L3.19367 2.81379L3.17898 2.84071C3.16688 2.8631 3.15025 2.89432 3.12974 2.93394C3.08874 3.01314 3.03214 3.1261 2.96511 3.26932C2.83123 3.55542 2.65486 3.96425 2.47811 4.46767C2.12641 5.46943 1.76359 6.87301 1.74808 8.44382C1.7325 10.0217 2.06801 11.7836 3.12948 13.4607C3.97745 14.8004 5.26128 16.0426 7.114 17.0866C5.33476 18.0857 3.56533 18.6629 1.53566 18.5839C1.11025 18.5674 0.729437 18.8459 0.616305 19.2563C0.503174 19.6667 0.687509 20.101 1.06132 20.3048C5.35086 22.6428 10.1081 23.4928 14.2981 22.2765L14.2982 22.2764C19.0605 20.893 22.9872 17.3118 24.4888 11.9666L24.49 11.9622C24.9209 10.3984 25.1409 8.7844 25.1444 7.16285C25.1456 7.16005 25.1469 7.15716 25.1482 7.15417C25.1902 7.05833 25.2563 6.92137 25.3464 6.74223C25.4452 6.54573 25.5579 6.32765 25.6828 6.0858C25.7914 5.87573 25.9092 5.64774 26.0352 5.40041C26.5377 4.4142 27.1539 3.15607 27.3825 2.26038C27.4049 2.18082 27.4167 2.09751 27.4167 2.0124V2.01115C27.4167 1.54791 27.0711 1.15747 26.6112 1.10126C26.4136 1.0771 26.2216 1.11795 26.058 1.20808C25.2089 1.61894 24.398 1.841 23.4831 2.09153C23.3311 2.13315 23.1763 2.17556 23.0179 2.21975ZM24.8802 3.60302C24.5311 3.70755 24.1877 3.80133 23.8539 3.8925C23.5644 3.97156 23.282 4.04865 23.0095 4.12909C22.6684 4.22975 22.2998 4.12403 22.064 3.85786C21.0144 2.67348 19.4035 2.51045 17.5965 3.18711C15.9416 3.80676 14.8934 5.29976 14.9166 6.98733L14.9168 6.9999H14.9167V8.2499C14.9167 8.74704 14.5204 9.15356 14.0235 9.16627C10.1918 9.26428 6.72034 7.73903 4.23488 4.99904C4.22591 5.02406 4.21692 5.04938 4.20793 5.07499C3.89909 5.95468 3.59425 7.15258 3.58132 8.46192C3.56847 9.76421 3.84374 11.1611 4.6786 12.4802C5.51214 13.7972 6.94658 15.1047 9.36634 16.1596C9.67383 16.2937 9.88355 16.585 9.91311 16.9191C9.94268 17.2532 9.78738 17.5768 9.50821 17.7628C8.04177 18.7396 6.53382 19.5529 4.88106 20.0141C7.95264 21.1017 11.0537 21.3092 13.7868 20.5159M24.8802 3.60302C24.7291 3.91884 24.5663 4.24503 24.4017 4.56815C24.2885 4.79038 24.1724 5.0151 24.0625 5.22794C23.9304 5.4836 23.8072 5.72213 23.7084 5.91868C23.6156 6.1032 23.5315 6.27582 23.4691 6.41808C23.4383 6.48833 23.4064 6.56577 23.3805 6.64167L23.3793 6.64532C23.3633 6.69215 23.3098 6.84882 23.3109 7.03248C23.3192 8.53249 23.1214 10.0265 22.7232 11.4727C21.4019 16.1739 17.974 19.2994 13.787 20.5158M25.1162 7.23197C25.1166 7.23086 25.1173 7.22893 25.1184 7.22611C25.1137 7.24238 25.1116 7.24557 25.1162 7.23197Z" fill="#1D1D1F"/>
</svg>
